<svg width="512" height="512" viewBox="0 0 512 512" xmlns="http://www.w3.org/2000/svg">
  <!-- 主背景圆 -->
  <circle cx="256" cy="256" r="240" fill="#1e1e1e" stroke="#ec4141" stroke-width="8"/>
  
  <!-- 外圈时钟环 -->
  <circle cx="256" cy="256" r="180" fill="none" stroke="rgba(255, 255, 255, 0.2)" stroke-width="6"/>
  
  <!-- 时钟刻度 -->
  <g stroke="#ec4141" stroke-width="6" stroke-linecap="round">
    <!-- 主要刻度 (12, 3, 6, 9) -->
    <line x1="256" y1="88" x2="256" y2="116" stroke-width="8"/>
    <line x1="424" y1="256" x2="396" y2="256" stroke-width="8"/>
    <line x1="256" y1="424" x2="256" y2="396" stroke-width="8"/>
    <line x1="88" y1="256" x2="116" y2="256" stroke-width="8"/>
    
    <!-- 次要刻度 -->
    <line x1="368.4" y1="143.6" x2="350.9" y2="161.1"/>
    <line x1="368.4" y1="368.4" x2="350.9" y2="350.9"/>
    <line x1="143.6" y1="368.4" x2="161.1" y2="350.9"/>
    <line x1="143.6" y1="143.6" x2="161.1" y2="161.1"/>
  </g>
  
  <!-- 统计图表扇形 -->
  <g opacity="0.8">
    <!-- 第一个扇形 (红色) -->
    <path d="M 256 256 L 256 96 A 160 160 0 0 1 360 140 Z" fill="#ec4141" opacity="0.7"/>
    <!-- 第二个扇形 (橙色) -->
    <path d="M 256 256 L 360 140 A 160 160 0 0 1 395 290 Z" fill="#ff6b6b" opacity="0.5"/>
    <!-- 第三个扇形 (灰色) -->
    <path d="M 256 256 L 395 290 A 160 160 0 1 1 256 96 Z" fill="rgba(255, 255, 255, 0.2)"/>
  </g>
  
  <!-- 时钟指针 -->
  <g stroke="#ec4141" stroke-linecap="round">
    <!-- 时针 (指向10点) -->
    <line x1="256" y1="256" x2="210" y2="180" stroke-width="12"/>
    <!-- 分针 (指向2点) -->
    <line x1="256" y1="256" x2="330" y2="160" stroke-width="8"/>
  </g>
  
  <!-- 中心圆点 -->
  <circle cx="256" cy="256" r="16" fill="#ec4141"/>
  
  <!-- 设备图标 -->
  <g opacity="0.9">
    <!-- 手机图标 -->
    <rect x="180" y="420" width="40" height="60" rx="6" fill="#ffffff" opacity="0.8"/>
    <rect x="185" y="430" width="30" height="40" fill="#1e1e1e"/>
    <circle cx="200" cy="450" r="2" fill="#ec4141"/>
    
    <!-- 电脑图标 -->
    <rect x="290" y="420" width="50" height="36" rx="4" fill="#ffffff" opacity="0.8"/>
    <rect x="295" y="425" width="40" height="26" fill="#1e1e1e"/>
    <rect x="310" y="456" width="10" height="6" fill="#ffffff" opacity="0.8"/>
    <circle cx="315" cy="440" r="2" fill="#ec4141"/>
  </g>
</svg>
